#!OML:ASF E:\acrobat2\Project_11_07_03\Capture day 1\Session 1\Acrobat.ASF
:FULLY-SPECIFIED
:DEGREES
241
root 11.5474 18.2138 4.63512 152.402 -47.6896 -136.368
lowerback 12.6906 -5.66315 0.751007
upperback 4.85641 -7.60953 1.43051
thorax -1.86296 -3.90573 2.12934
lowerneck 2.5219 -7.76791 -3.35183
upperneck -12.5764 -10.0578 13.7103
head -3.2298 -5.84939 5.03244
rclavicle 4.45278e-014 7.31528e-014
rhumerus -19.5212 -40.92 10.3739
rradius 43.3667
rwrist -33.4163
rhand -16.0476 -41.3859
rfingers 7.12502
rthumb 10.1543 -71.1208
lclavicle 4.45278e-014 7.31528e-014
lhumerus 55.1143 -0.116502 29.0215
lradius 54.3319
lwrist 17.3806
lhand -30.0393 -28.3838
lfingers 7.12502
lthumb -3.35538 1.56957
rfemur -36.6546 -7.53027 -16.9721
rtibia 49.5274
rfoot 3.26164 -2.65931
rtoes -11.6192
lfemur -22.542 14.9633 5.49422
ltibia 45.7283
lfoot -29.867 -2.51075
ltoes 31.9273
242
root 11.3939 18.4016 4.84489 152.64 -44.371 -137.927
lowerback 12.4944 -6.34332 1.21671
upperback 4.84734 -8.46701 1.51706
thorax -1.79361 -4.33541 2.06136
lowerneck 2.03429 -8.2934 -3.13318
upperneck -11.0313 -10.9013 12.7593
head -2.68967 -6.14165 4.62258
rclavicle -9.93923e-014 4.45278e-014
rhumerus -15.5207 -39.4885 9.96795
rradius 43.4019
rwrist -31.9627
rhand -15.5931 -41.5317
rfingers 7.12502
rthumb 10.5927 -71.2448
lclavicle -9.93923e-014 4.45278e-014
lhumerus 56.14 -1.09723 28.4877
lradius 55.8874
lwrist 16.5758
lhand -30.5382 -28.8109
lfingers 7.12502
lthumb -3.83719 1.13432
rfemur -37.0492 -8.26092 -17.4889
rtibia 52.556
rfoot 2.20525 -2.84411
rtoes -16.5503
lfemur -18.1037 14.3076 6.18559
ltibia 42.2982
lfoot -30.4879 0.275847
ltoes 32.2668
243
root 11.2339 18.6026 5.04667 153.148 -40.9947 -139.647
lowerback 12.1173 -6.9982 1.63589
upperback 4.85137 -9.30849 1.62841
thorax -1.61159 -4.76008 2.01439
lowerneck 0.913854 -8.72748 -2.77946
upperneck -8.76467 -11.6702 11.2823
head -2.09532 -6.33894 4.39377
rclavicle 5.28767e-014 -3.81667e-014
rhumerus -11.4058 -38.1854 9.65276
rradius 43.54
rwrist -31.5677
rhand -16.2041 -41.6956
rfingers 7.12502
rthumb 10.0033 -71.4379
lclavicle 5.28767e-014 -3.81667e-014
lhumerus 56.9845 -2.03539 28.2792
lradius 57.295
lwrist 15.3945
lhand -30.8177 -28.84
lfingers 7.12502
lthumb -4.10706 1.1002
rfemur -37.6318 -9.12241 -18.3142
rtibia 55.1783
rfoot 0.722601 -3.5193
rtoes -18.6081
lfemur -13.7964 13.5002 6.5564
ltibia 38.7646
lfoot -31.105 2.28184
ltoes 36.2101
244
root 11.0734 18.8154 5.23039 153.891 -37.5468 -141.407
lowerback 11.4281 -7.49609 1.9235
upperback 4.76146 -9.96586 1.81342
thorax -1.3359 -5.09352 2.04427
lowerneck -0.148971 -9.19414 -2.43346
upperneck -6.69183 -12.387 10.075
head -1.26609 -6.56163 3.73072
rclavicle 1.68967e-014 1.04958e-013
rhumerus -7.62167 -36.7828 9.8456
rradius 43.6573
rwrist -31.6594
rhand -17.3083 -41.3968
rfingers 7.12502
rthumb 8.93784 -71.1875
lclavicle 1.68967e-014 1.04958e-013
lhumerus 57.8022 -3.32585 28.1374
lradius 58.4407
lwrist 14.3212
lhand -31.1954 -29.0013
lfingers 7.12502
lthumb -4.47179 0.931485
rfemur -38.5567 -10.3186 -19.2178
rtibia 57.5975
rfoot -0.967511 -4.31318
rtoes -20.2948
lfemur -9.75157 12.7054 6.70524
ltibia 35.1252
lfoot -31.8017 3.72298
ltoes 40.7003
245
root 10.9085 19.0405 5.39488 154.672 -33.8409 -143.057
lowerback 10.3819 -7.85158 2.26544
upperback 4.70513 -10.4609 2.10813
thorax -0.82542 -5.35095 2.0678
lowerneck -0.790387 -9.64155 -2.29073
upperneck -5.11461 -13.0337 8.95149
head -0.691028 -6.78413 3.20842
rclavicle -1.0789e-013 -9.54166e-015
rhumerus -4.06597 -35.2039 10.4935
rradius 43.7472
rwrist -32.1374
rhand -17.9612 -40.6507
rfingers 7.12502
rthumb 8.30776 -70.4673
lclavicle -1.0789e-013 -9.54166e-015
lhumerus 58.4469 -4.59648 28.1382
lradius 59.2535
lwrist 13.5163
lhand -31.6052 -29.3878
lfingers 7.12502
lthumb -4.86756 0.536256
rfemur -39.849 -11.6646 -19.9059
rtibia 59.8943
rfoot -2.7856 -5.17836
rtoes -21.2502
lfemur -5.83774 11.8996 6.8445
ltibia 31.3911
lfoot -32.662 5.46346
ltoes 43.8526
246
root 10.7296 19.2805 5.55199 155.325 -29.9854 -144.755
lowerback 9.3269 -8.12185 2.6648
upperback 4.76316 -10.8701 2.37119
thorax -0.207166 -5.56841 1.99482
lowerneck -1.31072 -10.0404 -2.12998
upperneck -3.69214 -13.592 7.90247
head -0.206732 -6.9843 2.73915
rclavicle -5.14852e-014 -3.18055e-015
rhumerus -0.661776 -33.7398 11.3471
rradius 43.814
rwrist -32.2168
rhand -18.3203 -40.1921
rfingers 7.12502
rthumb 7.96125 -70.0222
lclavicle -5.14852e-014 -3.18055e-015
lhumerus 58.8924 -5.61877 28.4999
lradius 59.7435
lwrist 12.8119
lhand -32.0614 -29.7027
lfingers 7.12502
lthumb -5.30803 0.210821
rfemur -41.107 -13.0422 -20.6695
rtibia 61.7467
rfoot -4.45162 -6.05221
rtoes -19.8406
lfemur -1.85953 10.7942 6.69728
ltibia 27.6529
lfoot -33.8902 7.85327
ltoes 46.1914
247
root 10.5434 19.5309 5.7023 155.906 -26.1511 -146.648
lowerback 8.41866 -8.33701 2.87202
upperback 4.84723 -11.2382 2.64868
thorax 0.39718 -5.7711 2.04104
lowerneck -2.00473 -10.4104 -2.11898
upperneck -1.98517 -14.0929 6.842
head 0.389304 -7.15375 2.28263
rclavicle -1.72943e-014 9.54166e-015
rhumerus 2.93736 -32.789 12.057
rradius 43.72
rwrist -30.9358
rhand -18.2158 -40.0464
rfingers 7.12502
rthumb 8.06202 -69.8727
lclavicle -1.72943e-014 9.54166e-015
lhumerus 59.1965 -6.38878 29.6073
lradius 59.6388
lwrist 11.7397
lhand -32.5998 -29.7939
lfingers 7.12502
lthumb -5.82784 0.106002
rfemur -42.3193 -14.7202 -21.6648
rtibia 63.2693
rfoot -5.77164 -6.81602
rtoes -18.9842
lfemur 2.04635 9.1554 5.91765
ltibia 23.8958
lfoot -35.5798 10.7579
ltoes 47.8904
248
root 10.3632 19.7846 5.8459 156.462 -22.2921 -148.669
lowerback 7.57283 -8.52611 2.84772
upperback 4.8932 -11.5984 2.98654
thorax 0.9873 -5.97806 2.26864
lowerneck -2.36177 -10.4358 -2.19733
upperneck -0.816005 -14.0909 5.71916
head 0.731916 -7.1002 1.88641
rclavicle 2.52457e-014 0
rhumerus 6.7081 -32.1656 12.5285
rradius 43.6716
rwrist -28.8675
rhand -17.5699 -40.1682
rfingers 7.12502
rthumb 8.68542 -69.9695
lclavicle 2.52457e-014 0
lhumerus 59.2785 -6.82321 30.9684
lradius 58.8021
lwrist 10.7269
lhand -33.417 -29.758
lfingers 7.12502
lthumb -6.61679 0.118639
rfemur -43.792 -16.6901 -22.6739
rtibia 64.9489
rfoot -7.10788 -7.49944
rtoes -19.44
lfemur 5.57538 6.96769 4.47925
ltibia 20.3742
lfoot -38.3078 13.2083
ltoes 50.3149
249
root 10.1965 20.0464 5.98399 156.852 -18.5751 -150.616
lowerback 6.88308 -8.79746 2.6545
upperback 4.86015 -12.0774 3.38523
thorax 1.4668 -6.25417 2.67367
lowerneck -1.7349 -10.51 -2.53437
upperneck -0.307688 -13.9442 4.74869
head 0.728914 -6.90742 1.66748
rclavicle 4.05521e-014 -2.8625e-014
rhumerus 10.5522 -31.7956 12.7133
rradius 43.8573
rwrist -26.6133
rhand -16.4024 -40.0698
rfingers 7.12502
rthumb 9.81191 -69.8212
lclavicle 4.05521e-014 -2.8625e-014
lhumerus 59.0959 -6.94713 32.2386
lradius 57.1149
lwrist 10.3443
lhand -34.3603 -29.9424
lfingers 7.12502
lthumb -7.5273 -0.0963386
rfemur -45.2438 -18.8039 -23.6523
rtibia 66.6815
rfoot -8.69549 -8.28515
rtoes -18.3768
lfemur 8.47813 4.63706 2.7022
ltibia 17.6521
lfoot -42.1828 13.3491
ltoes 53.9345
250
root 10.0519 20.3139 6.11913 157.153 -15.0602 -152.314
lowerback 6.49093 -9.13616 2.42306
upperback 4.61127 -12.6343 3.92966
thorax 1.61521 -6.57943 3.31223
lowerneck -1.12838 -10.3974 -3.18727
upperneck 0.366792 -13.8407 3.79657
head 0.808051 -6.88741 1.49477
rclavicle 1.43125e-014 1.1609e-013
rhumerus 14.7103 -32.0694 12.1458
rradius 44.1826
rwrist -23.7836
rhand -14.604 -39.31
rfingers 7.12502
rthumb 11.5467 -68.9719
lclavicle 1.43125e-014 1.1609e-013
lhumerus 58.8082 -6.86128 34.1236
lradius 54.5834
lwrist 10.0402
lhand -34.7725 -29.9125
lfingers 7.12502
lthumb -7.92518 -0.0811022
rfemur -46.636 -21.1128 -24.4846
rtibia 68.1634
rfoot -10.7882 -9.54621
rtoes -15.6639
lfemur 10.4278 2.83946 1.16608
ltibia 16.3112
lfoot -45.3934 11.6125
ltoes 56.273
251
root 9.93198 20.5759 6.25147 157.456 -11.7108 -153.887
lowerback 6.14327 -9.45897 2.14358
upperback 4.36047 -13.1782 4.44007
thorax 1.75458 -6.90205 3.94014
lowerneck -0.872877 -10.2059 -3.78496
upperneck 1.45515 -13.6096 2.89557
head 1.07303 -6.79363 1.30002
rclavicle -3.77691e-014 2.38542e-014
rhumerus 19.0022 -33.0155 10.4623
rradius 44.6713
rwrist -20.7542
rhand -12.9216 -38.4018
rfingers 7.12502
rthumb 13.1688 -67.9659
lclavicle -3.77691e-014 2.38542e-014
lhumerus 58.767 -6.42432 36.558
lradius 51.4146
lwrist 9.57334
lhand -34.9165 -29.7809
lfingers 7.12502
lthumb -8.06422 0.0452326
rfemur -48.015 -23.5662 -25.3038
rtibia 69.2928
rfoot -13.5942 -11.207
rtoes -12.9661
lfemur 11.423 2.02484 0.105959
ltibia 16.428
lfoot -45.405 11.5757
ltoes 56.9856
252
root 9.82962 20.8302 6.38378 157.764 -8.55669 -155.144
lowerback 5.45691 -9.73633 2.14522
upperback 4.39109 -13.698 4.80248
thorax 2.28658 -7.20864 4.17024
lowerneck -0.973314 -10.0915 -3.61207
upperneck 2.57276 -13.4466 1.86299
head 1.34523 -6.7254 0.92697
rclavicle 3.93594e-014 3.26007e-014
rhumerus 22.755 -34.3327 8.04814
rradius 45.4346
rwrist -18.5116
rhand -12.1121 -37.3662
rfingers 7.12502
rthumb 13.949 -66.8782
lclavicle 3.93594e-014 3.26007e-014
lhumerus 59.3253 -5.64756 38.8557
lradius 47.7948
lwrist 9.39764
lhand -35.1243 -29.8401
lfingers 7.12502
lthumb -8.26473 -0.0217465
rfemur -49.7566 -26.7197 -25.1471
rtibia 69.1265
rfoot -11.866 -17.3688
rtoes -34.8636
lfemur 11.4595 2.21514 -0.148409
ltibia 17.7181
lfoot -40.4869 16.947
ltoes 56.7077
253
root 9.73717 21.0744 6.52286 158.012 -5.53959 -156.045
lowerback 4.71241 -9.94232 2.48458
upperback 4.61987 -14.1515 5.07925
thorax 2.96219 -7.4774 4.10014
lowerneck -0.955728 -10.1612 -2.99943
upperneck 3.33504 -13.524 0.974677
head 1.47236 -6.76963 0.545183
rclavicle 7.15625e-015 5.96354e-014
rhumerus 25.9055 -35.671 5.38212
rradius 46.3237
rwrist -17.2291
rhand -11.8127 -35.7595
rfingers 7.12502
rthumb 14.2375 -65.2515
lclavicle 7.15625e-015 5.96354e-014
lhumerus 60.2583 -4.80397 41.2606
lradius 44.0026
lwrist 9.51891
lhand -35.0514 -29.4321
lfingers 7.12502
lthumb -8.19433 0.389036
rfemur -50.7534 -29.0317 -25.6288
rtibia 69.6814
rfoot -15.1912 -19.5763
rtoes -31.315
lfemur 10.6341 3.27432 0.369515
ltibia 20.0359
lfoot -23.6415 25.046
ltoes 56.0496
254
root 9.6478 21.305 6.67181 158.027 -2.5635 -156.982
lowerback 4.16938 -9.99877 2.93991
upperback 5.18281 -14.4144 5.05296
thorax 3.76233 -7.63567 3.6663
lowerneck -1.24032 -10.37 -2.24099
upperneck 4.10379 -13.7957 0.606259
head 1.68777 -6.8963 0.275484
rclavicle -1.30701e-013 -1.98785e-014
rhumerus 28.5996 -37.1417 2.2278
rradius 47.1504
rwrist -16.3038
rhand -12.0284 -34.241
rfingers 7.12502
rthumb 14.0296 -63.7475
lclavicle -1.30701e-013 -1.98785e-014
lhumerus 61.7436 -3.79505 43.3854
lradius 40.4104
lwrist 9.99808
lhand -34.7616 -28.7534
lfingers 7.12502
lthumb -7.91472 1.07843
rfemur -51.6319 -31.2022 -25.9604
rtibia 71.1195
rfoot -19.6935 -20.3275
rtoes -25.5555
lfemur 9.42903 4.78429 0.95555
ltibia 23.1139
lfoot -3.91742 24.734
ltoes 47.1261
